<svg xmlns="http://www.w3.org/2000/svg" xmlns:xlink="http://www.w3.org/1999/xlink" width="1900" height="1080" viewBox="0 0 1900 1080"><defs><style>.a{clip-path:url(#b);}.b,.e{fill:#fff;}.c{fill:#00b0ca;}.d{fill:rgba(255,255,255,0.9);}.e{font-size:17px;font-family:Poppins-Regular, Poppins;}</style><clipPath id="b"><rect width="1900" height="1080"/></clipPath></defs><g id="a" class="a"><rect class="c" width="1900" height="1080"/><g transform="translate(1225.287 329.916)"><g transform="translate(0 0)"><path class="b" d="M330.99,323.343l-15.076-88.262a25.123,25.123,0,0,0-17.607-19.935l-40.664-12.269a45.355,45.355,0,0,0-31.472-39.387c1.287-1.428,2.481-2.852,3.576-4.245,9.67-12.3,14.847-25.848,16.165-35.094h3.137a14.814,14.814,0,0,0,14.8-14.8v-7.585a14.9,14.9,0,0,0-7.67-12.94V70.588a4.99,4.99,0,1,0-9.981,0V91.065a30.761,30.761,0,0,0-6.635,1.92,5.014,5.014,0,0,0-.7.314c-.536.244-1.072.5-1.607.792V53.873a20.173,20.173,0,0,0-20.15-20.15H203.326a20.7,20.7,0,0,0-13.071,4.663l-1.352,1.1a13.941,13.941,0,0,1-17.649,0l-1.351-1.1a20.707,20.707,0,0,0-13.071-4.663H143.057a20.173,20.173,0,0,0-20.15,20.15V94.091c-.534-.29-1.071-.548-1.607-.792a5.007,5.007,0,0,0-.7-.314,30.772,30.772,0,0,0-6.635-1.92V39.288A29.34,29.34,0,0,1,143.27,9.981h73.617a29.34,29.34,0,0,1,29.307,29.307v7.845a4.99,4.99,0,1,0,9.981,0V39.288A39.333,39.333,0,0,0,216.887,0H143.27a39.332,39.332,0,0,0-39.288,39.288V88.829a14.9,14.9,0,0,0-7.67,12.94v7.585a14.814,14.814,0,0,0,14.8,14.8h3.137c1.317,9.246,6.5,22.8,16.165,35.094,1.094,1.391,2.286,2.814,3.572,4.241a45.519,45.519,0,0,0-31.468,39.39L61.851,215.146a25.122,25.122,0,0,0-17.607,19.935l-6.122,35.842a4.99,4.99,0,0,0,9.838,1.68l6.122-35.843A15.2,15.2,0,0,1,64.733,224.7l37.61-11.348v9.872a24.969,24.969,0,0,0-18.978,15.714,25.31,25.31,0,0,0-1.482,6.777l-3.635,46.656A12.685,12.685,0,0,0,90.9,306.043h6.222a4.99,4.99,0,1,0,0-9.981H90.9a2.7,2.7,0,0,1-2.7-2.913l3.635-46.657a15.324,15.324,0,0,1,.9-4.1,15.092,15.092,0,0,1,14.126-9.617l.822-.006h.114A14.953,14.953,0,0,1,121.73,241.7a15.307,15.307,0,0,1,1.168,4.792l3.636,46.657a2.7,2.7,0,0,1-2.7,2.913h-6.222a4.99,4.99,0,1,0,0,9.981h6.222a12.686,12.686,0,0,0,12.647-13.67l-3.636-46.657a25.276,25.276,0,0,0-1.929-7.91,24.706,24.706,0,0,0-18.6-14.614v-12.85l17.155-5.176c1.561,3.287,4.654,10.392,10.781,25.705,6.175,15.451,13.85,35.257,21.211,54.51a5.066,5.066,0,0,0,.181.474c4.912,12.854,9.677,25.443,13.753,36.3a4.991,4.991,0,0,0,9.345,0c4.075-10.86,8.84-23.45,13.753-36.3a4.959,4.959,0,0,0,.181-.474c7.356-19.242,15.027-39.035,21.2-54.482,6.135-15.334,9.231-22.444,10.792-25.734l17.155,5.176v29.477a25.818,25.818,0,1,0,9.981.021V213.354L295.423,224.7a15.2,15.2,0,0,1,10.652,12.06l15.076,88.262a4.955,4.955,0,0,1-4.884,5.789H43.889A4.955,4.955,0,0,1,39,325.024L43.98,295.9a4.99,4.99,0,0,0-9.838-1.68l-4.975,29.129a14.934,14.934,0,0,0,14.723,17.45H316.267a14.935,14.935,0,0,0,14.723-17.45ZM246.254,101.232a21.417,21.417,0,0,1,4.818-.65A5.1,5.1,0,0,0,253.51,100a4.728,4.728,0,0,1,.353,1.767v7.585a4.822,4.822,0,0,1-4.816,4.816h-2.794ZM113.9,114.171h-2.794a4.822,4.822,0,0,1-4.816-4.816v-7.585a4.735,4.735,0,0,1,.353-1.766,5.09,5.09,0,0,0,2.439.578,22.248,22.248,0,0,1,4.818.653Zm9.981,5.6V106.656a7,7,0,0,0,9-6.713V53.873A10.181,10.181,0,0,1,143.057,43.7h13.775a10.7,10.7,0,0,1,6.753,2.409l1.351,1.1a23.925,23.925,0,0,0,30.284,0l1.351-1.1a10.7,10.7,0,0,1,6.753-2.409H217.1a10.181,10.181,0,0,1,10.169,10.169v46.07a7,7,0,0,0,9,6.717v13.107c0,7.286-5.037,21.436-14.373,33.309a65.8,65.8,0,0,1-11.962,11.851,5,5,0,0,0-.445.336,48.647,48.647,0,0,1-58.83,0,5.069,5.069,0,0,0-.444-.335,65.844,65.844,0,0,1-11.962-11.852C128.921,141.2,123.883,127.053,123.883,119.767Zm88.89,80.629-32.695,24.437L147.383,200.4a23.667,23.667,0,0,0,5.059-14.131V178.22a58.607,58.607,0,0,0,55.272,0v8.045A23.667,23.667,0,0,0,212.773,200.4Zm-73.719-5.571a13.645,13.645,0,0,0-8.415-.423c-.122.029-.242.061-.359.1l-17.241,5.2a35.454,35.454,0,0,1,29.421-27.962v14.526A13.2,13.2,0,0,1,139.054,194.825ZM152.6,234.887l-.027-.069q-.379-.959-.75-1.894l-.134-.337-.72-1.812-.05-.126q-1.109-2.789-2.138-5.351c-.05-.124-.1-.25-.15-.373q-.3-.735-.583-1.449l-.21-.521c-.186-.462-.371-.921-.554-1.37l-.162-.4q-.5-1.224-.97-2.387l-.257-.63-.365-.893c-.13-.32-.261-.636-.389-.948-.048-.116-.1-.24-.146-.355l-.112-.272q-.865-2.1-1.644-3.962l-.013-.03c-.277-.661-.548-1.307-.808-1.922l-.4-.94,28.119,21.016-11.749,4.991-.063.027-4.906,2.084C153.143,236.262,152.87,235.573,152.6,234.887Zm11.908,30.557q-1.479-3.837-2.974-7.7-2.334-6.029-4.465-11.482l1.862-.791,7.609,8.845Zm15.668,40.561a4.97,4.97,0,0,0-.511-.838c-2.255-5.961-5.117-13.5-8.285-21.8l4.659-25.51h8.079l4.659,25.51C185.457,292.06,182.476,299.921,180.174,306.005Zm5.815-58.129H174.167l-5.594-6.5,11.506-4.888,11.506,4.888Zm12.634,9.867q-1.493,3.855-2.974,7.7l-2.033-11.13,7.609-8.845,1.862.791Q200.954,251.722,198.623,257.744Zm19.115-47.956c-.247.583-.5,1.195-.765,1.819l-.1.245c-.259.619-.523,1.251-.8,1.91l-.055.133c-.236.568-.477,1.154-.723,1.751-.046.112-.089.215-.135.327l-.168.411-.332.809-.414,1.011c-.045.109-.09.223-.136.333q-.521,1.277-1.069,2.63c-.057.141-.114.28-.171.423-.18.445-.364.9-.548,1.357-.072.179-.144.357-.217.538q-.286.708-.577,1.434l-.164.409q-1.015,2.528-2.108,5.275l-.072.181c-.236.592-.474,1.193-.715,1.8l-.135.34q-.373.94-.754,1.9l-.014.035c-.274.694-.55,1.391-.831,2.1l-4.91-2.086-.051-.022-11.756-4.994,28.119-21.016Q217.94,209.308,217.738,209.788ZM229.875,194.5h0l-.013,0a13.639,13.639,0,0,0-8.757.331,13.194,13.194,0,0,1-3.407-8.56V171.731a35.177,35.177,0,0,1,29.441,27.975Zm38.73,70.665a15.842,15.842,0,1,1-15.842-15.842A15.859,15.859,0,0,1,268.605,265.163Z" transform="translate(-28.952)"/><path class="c" d="M316.267,336.793a10.935,10.935,0,0,0,10.78-12.777l-15.076-88.262a21.146,21.146,0,0,0-14.82-16.779l-43.264-13.054-.229-2.707a41.355,41.355,0,0,0-28.7-35.912l-5.92-1.877,4.157-4.613c1.18-1.309,2.324-2.668,3.4-4.039,9.563-12.163,14.2-25.118,15.35-33.186l.49-3.436h6.607a10.809,10.809,0,0,0,10.8-10.8v-7.585a10.679,10.679,0,0,0-1.537-5.493,11,11,0,0,0-4.076-3.951l-2.057-1.143V70.588a.99.99,0,1,0-1.981,0V94.43l-3.316.576a26.6,26.6,0,0,0-5.767,1.665l-.09.038-.092.034a1.139,1.139,0,0,0-.144.06l-.132.073-.137.063c-.543.248-.975.46-1.357.668l-5.909,3.208V53.873a16.168,16.168,0,0,0-16.15-16.15H203.326a16.7,16.7,0,0,0-10.539,3.76l-1.351,1.1a17.941,17.941,0,0,1-22.713,0l-1.351-1.1a16.7,16.7,0,0,0-10.539-3.76H143.057a16.168,16.168,0,0,0-16.15,16.15v46.941L121,97.606c-.383-.208-.814-.42-1.357-.668l-.138-.063-.132-.073a1.111,1.111,0,0,0-.143-.06l-.092-.034-.091-.038a26.606,26.606,0,0,0-5.767-1.665l-3.315-.576V39.288A33.345,33.345,0,0,1,143.27,5.981h73.617a33.345,33.345,0,0,1,33.307,33.307v7.845a.99.99,0,1,0,1.981,0V39.288A35.328,35.328,0,0,0,216.887,4H143.27a35.328,35.328,0,0,0-35.288,35.288V91.182l-2.057,1.143a11,11,0,0,0-4.077,3.951,10.68,10.68,0,0,0-1.537,5.493v7.585a10.809,10.809,0,0,0,10.8,10.8h6.608l.489,3.436c1.149,8.067,5.785,21.021,15.35,33.186,1.074,1.366,2.218,2.724,3.4,4.035l4.155,4.611-5.915,1.879a41.03,41.03,0,0,0-10.928,5.369,41.648,41.648,0,0,0-8.8,8.2,41.208,41.208,0,0,0-8.971,22.353l-.231,2.705L63.006,218.975a21.144,21.144,0,0,0-14.82,16.779L42.064,271.6a.992.992,0,0,0,.812,1.143,1.022,1.022,0,0,0,.172.015,1,1,0,0,0,.969-.825l6.122-35.842a19.173,19.173,0,0,1,13.439-15.216l42.766-12.9v18.588l-3.276.6a20.977,20.977,0,0,0-15.948,13.162,21.307,21.307,0,0,0-1.247,5.706l-3.635,46.657a8.685,8.685,0,0,0,8.658,9.36h6.222a.99.99,0,1,0,0-1.981H90.9a6.7,6.7,0,0,1-6.683-7.224l3.635-46.658a19.323,19.323,0,0,1,1.132-5.175,19.109,19.109,0,0,1,17.851-12.235l.809-.006h.157a18.959,18.959,0,0,1,17.617,11.376,19.3,19.3,0,0,1,1.473,6.042l3.636,46.66a6.7,6.7,0,0,1-6.684,7.221h-6.222a.99.99,0,1,0,0,1.981h6.222a8.686,8.686,0,0,0,8.659-9.36l-3.636-46.656a21.284,21.284,0,0,0-1.624-6.661,20.7,20.7,0,0,0-15.607-12.235l-3.305-.583V207.371l23.293-7.029,1.475,3.108c2.129,4.484,5.79,13.21,10.882,25.937,7.081,17.72,15.455,39.454,21.233,54.566l.036.1.031.1a1.065,1.065,0,0,0,.039.1l.04.09.035.092c4.692,12.279,9.451,24.84,13.761,36.326a.991.991,0,0,0,1.855,0c4.308-11.48,9.066-24.042,13.762-36.326l.038-.1.043-.1a.963.963,0,0,0,.034-.091l.031-.095.036-.093c5.753-15.051,14.105-36.73,21.222-54.539,5.095-12.734,8.759-21.469,10.892-25.963l1.475-3.108,23.294,7.029v35.746l-3.237.629a21.923,21.923,0,0,0-16.309,13.875,21.84,21.84,0,1,0,37.273-6.372,21.907,21.907,0,0,0-12.527-7.486l-3.219-.641V207.969l42.766,12.9a19.175,19.175,0,0,1,13.44,15.216l15.076,88.262a8.955,8.955,0,0,1-8.827,10.464H43.889a8.955,8.955,0,0,1-8.827-10.463l4.975-29.128a.992.992,0,0,0-.812-1.143,1.02,1.02,0,0,0-.171-.015,1,1,0,0,0-.969.825l-4.975,29.128a10.934,10.934,0,0,0,10.78,12.777H316.267M172.7,253.857h14.75l5.46,29.891-.4,1.045c-2.744,7.187-5.637,14.8-8.6,22.627l-3.3,8.715-4.047-8.393a.984.984,0,0,0-.1-.165l-.346-.458-.2-.537c-2.744-7.252-5.53-14.583-8.281-21.79l-.4-1.045,5.46-29.891m80.061-8.535a19.842,19.842,0,1,1-19.842,19.842,19.864,19.864,0,0,1,19.842-19.842m-92.707-4.676,10.761,12.509-4.931,26.995-5.113-13.267c-1.086-2.818-2.058-5.335-2.972-7.695-1.527-3.945-3.028-7.8-4.46-11.471l-1.413-3.618,8.128-3.454m40.044,0,8.128,3.454-1.413,3.618c-1.412,3.615-2.913,7.475-4.461,11.472-.895,2.31-1.867,4.827-2.972,7.694l-5.113,13.267-4.931-27L200.1,240.645m-20.022-8.5,18.108,7.692-10.362,12.044H172.331L161.97,239.832l18.108-7.692m20.192,6.426-.074-.032-18.144-7.708,44.018-32.9a9.683,9.683,0,0,0-3.544.636l-2.538.966-1.835-2a17.136,17.136,0,0,1-4.458-11.263V167.1l4.583.676a39.326,39.326,0,0,1,32.781,31.152l1.3,6.534L229.284,198.5H229.2l-.554-.191a9.432,9.432,0,0,0-1.485-.307l-5.352,12.431c-.126.292-.256.6-.387.909l0,.008c-.268.634-.547,1.3-.759,1.8l-.038.09-.06.144,0,.012c-.257.615-.519,1.244-.792,1.9l-.031.075-.023.056c-.234.564-.474,1.146-.717,1.736l-.065.157-.067.161-.1.233-.161.392-.247.6-.461,1.126-.092.226h0c-.369.905-.716,1.758-1.061,2.609l-.046.114c-.039.1-.078.191-.117.289l-.007.017-.544,1.347-.1.26-.111.275,0,.008q-.284.7-.574,1.427l0,.01-.1.252-.06.15c-.65,1.617-1.338,3.339-2.1,5.263l-.028.072-.036.09-.008.02-.432,1.087-.28.7-.1.247-.039.1q-.371.934-.749,1.892l-.023.057-.824,2.086-1.506,3.819-8.682-3.688m-51.385-2.193-.039-.1q-.375-.949-.742-1.875l0-.01-.128-.322-.132-.334-.589-1.484-.014-.034-.041-.1c-.69-1.734-1.4-3.523-2.125-5.319L145,226.63l-.081-.2-.172-.427-.415-1.031-.289-.716c-.158-.393-.316-.783-.471-1.165l-.043-.105-.123-.3h0q-.494-1.218-.966-2.377l-.254-.624h0l-.365-.892-.263-.64-.124-.3h0l-.066-.161-.074-.18-.116-.281c-.568-1.38-1.118-2.7-1.633-3.936l-.017-.04c-.3-.724-.555-1.325-.8-1.9L133.069,198a9.512,9.512,0,0,0-1.383.267l-.069.019-.069.016c-.034.008-.076.019-.125.034l-23.638,7.133,1.334-6.561a39.48,39.48,0,0,1,32.753-31.121l4.588-.682v19.165A17.139,17.139,0,0,1,142,197.528l-1.835,2-2.538-.967a9.649,9.649,0,0,0-3.536-.633l44.011,32.894-26.9,11.426-1.749-4.423-.576-1.456m-.443-64.845,5.895,3.17a54.058,54.058,0,0,0,11.787,4.668,55.6,55.6,0,0,0,27.909,0,54.048,54.048,0,0,0,11.787-4.668l5.895-3.17v14.738a18.129,18.129,0,0,0,1.084,5.956,20.248,20.248,0,0,0,3.118,5.7l2.535,3.223-38.374,28.682L141.7,201.145l2.535-3.223a20.246,20.246,0,0,0,3.118-5.7,18.128,18.128,0,0,0,1.084-5.956V171.527m-28.559-70.246,5.148,1.543a3,3,0,0,0,3.856-2.881V53.873A14.185,14.185,0,0,1,143.057,39.7h13.775a14.71,14.71,0,0,1,9.285,3.312l1.351,1.1a19.925,19.925,0,0,0,25.22,0l1.351-1.1a14.707,14.707,0,0,1,9.286-3.312H217.1a14.185,14.185,0,0,1,14.169,14.169v46.07a3.014,3.014,0,0,0,3.01,3.009,2.971,2.971,0,0,0,.85-.125l5.145-1.536v18.476c0,4.327-1.415,10.168-3.983,16.449a81.885,81.885,0,0,1-11.245,19.333,69.534,69.534,0,0,1-12.7,12.572l-.09.068-.094.063a1.019,1.019,0,0,0-.089.068l-.1.084-.1.077a52.645,52.645,0,0,1-63.586,0l-.1-.074-.1-.08a1.073,1.073,0,0,0-.092-.071l-.1-.064-.092-.069a69.588,69.588,0,0,1-12.7-12.572,81.889,81.889,0,0,1-11.245-19.333c-2.569-6.281-3.984-12.123-3.984-16.449V101.281m131.168-4.7h.089a1.092,1.092,0,0,0,.513-.122l3.919-2.054,1.65,4.106a8.707,8.707,0,0,1,.642,3.258v7.585a8.826,8.826,0,0,1-8.816,8.816h-6.794V98.107l3.032-.756a25.42,25.42,0,0,1,5.765-.769M104.582,94.4l3.922,2.057a1.081,1.081,0,0,0,.508.121l.394-.005.084.015a26.631,26.631,0,0,1,5.377.761l3.036.754v20.064h-6.794a8.826,8.826,0,0,1-8.816-8.816v-7.585a8.713,8.713,0,0,1,.641-3.255l1.649-4.11M316.267,340.793H43.889a14.934,14.934,0,0,1-14.723-17.45l4.975-29.129a4.99,4.99,0,0,1,9.838,1.68L39,325.024a4.955,4.955,0,0,0,4.884,5.789H316.267a4.955,4.955,0,0,0,4.884-5.789l-15.076-88.262a15.2,15.2,0,0,0-10.652-12.06l-37.611-11.348V239.84a25.827,25.827,0,1,1-9.981-.021V210.342l-17.155-5.176c-1.562,3.29-4.657,10.4-10.792,25.734-6.172,15.447-13.843,35.24-21.2,54.482a4.947,4.947,0,0,1-.181.474c-4.913,12.854-9.678,25.443-13.753,36.3a4.991,4.991,0,0,1-9.345,0c-4.076-10.86-8.841-23.449-13.753-36.3q-.1-.232-.181-.474c-7.361-19.253-15.036-39.059-21.211-54.51-6.127-15.314-9.22-22.418-10.781-25.705l-17.155,5.176v12.85a24.706,24.706,0,0,1,18.6,14.614,25.277,25.277,0,0,1,1.929,7.91l3.636,46.657a12.686,12.686,0,0,1-12.647,13.67h-6.222a4.99,4.99,0,1,1,0-9.981h6.222a2.7,2.7,0,0,0,2.7-2.913L122.9,246.492a15.307,15.307,0,0,0-1.168-4.792,14.953,14.953,0,0,0-13.935-8.937h-.114l-.822.006a15.092,15.092,0,0,0-14.126,9.617,15.325,15.325,0,0,0-.9,4.1L88.2,293.149a2.7,2.7,0,0,0,2.7,2.913h6.222a4.99,4.99,0,1,1,0,9.981H90.9a12.685,12.685,0,0,1-12.646-13.671l3.635-46.656a25.308,25.308,0,0,1,1.482-6.777,24.969,24.969,0,0,1,18.978-15.714v-9.872L64.733,224.7a15.2,15.2,0,0,0-10.652,12.06L47.959,272.6a4.99,4.99,0,0,1-9.838-1.68l6.122-35.842a25.122,25.122,0,0,1,17.607-19.935l40.665-12.269a45.519,45.519,0,0,1,31.468-39.39c-1.286-1.427-2.479-2.85-3.572-4.241-9.67-12.3-14.848-25.848-16.165-35.094h-3.137a14.814,14.814,0,0,1-14.8-14.8v-7.585a14.9,14.9,0,0,1,7.67-12.94V39.288A39.332,39.332,0,0,1,143.27,0h73.617a39.333,39.333,0,0,1,39.288,39.288v7.845a4.99,4.99,0,1,1-9.981,0V39.288A29.34,29.34,0,0,0,216.887,9.981H143.27a29.34,29.34,0,0,0-29.307,29.307V91.065a30.771,30.771,0,0,1,6.635,1.92,5.006,5.006,0,0,1,.7.314c.536.244,1.072.5,1.607.792V53.873a20.173,20.173,0,0,1,20.15-20.15h13.776A20.707,20.707,0,0,1,169.9,38.386l1.351,1.1a13.941,13.941,0,0,0,17.649,0l1.352-1.1a20.7,20.7,0,0,1,13.071-4.663H217.1a20.173,20.173,0,0,1,20.15,20.15V94.091c.534-.29,1.071-.548,1.607-.792a5.019,5.019,0,0,1,.7-.314,30.761,30.761,0,0,1,6.635-1.92V70.588a4.99,4.99,0,1,1,9.981,0v18.24a14.9,14.9,0,0,1,7.67,12.94v7.585a14.814,14.814,0,0,1-14.8,14.8h-3.137c-1.318,9.246-6.5,22.8-16.165,35.094-1.095,1.393-2.288,2.816-3.576,4.245a45.355,45.355,0,0,1,31.472,39.387l40.664,12.269a25.123,25.123,0,0,1,17.607,19.935l15.076,88.262a14.935,14.935,0,0,1-14.723,17.45ZM176.038,257.857l-4.659,25.51c3.168,8.3,6.03,15.84,8.285,21.8a4.975,4.975,0,0,1,.511.838c2.3-6.084,5.283-13.945,8.6-22.639l-4.659-25.51Zm76.725-8.535a15.842,15.842,0,1,0,15.842,15.842A15.859,15.859,0,0,0,252.763,249.322Zm-51.538-3.853-7.609,8.845,2.033,11.13q1.479-3.837,2.974-7.7,2.334-6.029,4.465-11.483Zm-42.3,0-1.862.791q2.134,5.461,4.465,11.482,1.493,3.855,2.974,7.7l2.033-11.129Zm21.148-8.984-11.506,4.888,5.594,6.5h11.823l5.594-6.5Zm38.06-27.637-28.119,21.016,11.756,4.994.051.022,4.91,2.086.831-2.1.014-.035q.381-.966.754-1.9l.135-.34c.241-.606.479-1.208.715-1.8l.072-.181q1.093-2.748,2.108-5.275l.164-.409q.291-.727.577-1.434c.073-.181.145-.359.217-.538.184-.457.368-.912.549-1.357.057-.143.114-.282.171-.423q.547-1.352,1.069-2.63c.045-.11.091-.224.136-.333l.414-1.011.332-.809.168-.411c.046-.113.089-.216.135-.327.246-.6.487-1.183.723-1.751l.055-.133c.273-.658.536-1.291.8-1.91l.1-.245c.262-.624.518-1.236.765-1.819Q217.94,209.308,218.138,208.849Zm-76.118,0,.4.94c.26.615.531,1.261.808,1.922l.013.03q.78,1.862,1.644,3.962l.112.272.146.355c.128.312.258.628.389.948l.365.893.257.63q.473,1.163.97,2.387l.162.4c.182.449.367.909.554,1.37l.21.521q.289.715.583,1.449c.05.123.1.249.15.373q1.028,2.563,2.138,5.351l.05.126.72,1.812.134.337q.371.935.75,1.894l.027.069c.272.686.544,1.375.822,2.079l4.906-2.084.063-.027,11.749-4.991Zm10.422-30.628v8.045a23.667,23.667,0,0,1-5.059,14.131l32.695,24.437L212.773,200.4a23.667,23.667,0,0,1-5.059-14.131V178.22a58.607,58.607,0,0,1-55.272,0Zm94.7,21.486A35.177,35.177,0,0,0,217.7,171.731v14.534a13.194,13.194,0,0,0,3.407,8.56,13.639,13.639,0,0,1,8.757-.331l.013,0h0ZM142.461,171.739A35.454,35.454,0,0,0,113.039,199.7l17.241-5.2c.117-.035.236-.067.359-.1a13.645,13.645,0,0,1,8.415.423,13.2,13.2,0,0,0,3.407-8.56Zm-18.578-65.083v13.111c0,7.287,5.038,21.437,14.373,33.309a65.846,65.846,0,0,0,11.962,11.852,5.058,5.058,0,0,1,.444.335,48.647,48.647,0,0,0,58.83,0,5,5,0,0,1,.445-.336A65.8,65.8,0,0,0,221.9,153.076c9.336-11.873,14.373-26.023,14.373-33.309V106.66a7.008,7.008,0,0,1-9-6.717V53.873A10.181,10.181,0,0,0,217.1,43.7H203.324a10.7,10.7,0,0,0-6.753,2.409l-1.351,1.1a23.925,23.925,0,0,1-30.284,0l-1.351-1.1a10.7,10.7,0,0,0-6.753-2.409H143.057a10.181,10.181,0,0,0-10.169,10.169v46.07a7,7,0,0,1-9,6.713Zm127.168-6.074a21.6,21.6,0,0,0-4.8.65v12.939h2.794a4.822,4.822,0,0,0,4.816-4.816v-7.585A4.729,4.729,0,0,0,253.51,100a5.1,5.1,0,0,1-2.439.579ZM106.646,100a4.735,4.735,0,0,0-.353,1.766v7.585a4.822,4.822,0,0,0,4.816,4.816H113.9V101.235a22.249,22.249,0,0,0-4.818-.653A5.089,5.089,0,0,1,106.646,100Z" transform="translate(-28.952)"/></g></g><g transform="translate(1624.741 295.194)"><path class="d" d="M46.709,0a10,10,0,0,1,8.674,5.023l11.762,20.5a10,10,0,0,1,0,9.953l-11.762,20.5A10,10,0,0,1,46.709,61H23.291a10,10,0,0,1-8.674-5.023L2.855,35.477a10,10,0,0,1,0-9.953l11.762-20.5A10,10,0,0,1,23.291,0Z" transform="translate(17.259 38.806)"/><g transform="translate(35.246 53.466)"><path class="c" d="M33.5,6.75H30.3V8.673a.643.643,0,0,1-.641.641H28.373a.643.643,0,0,1-.641-.641V6.75H12.349V8.673a.643.643,0,0,1-.641.641H10.426a.643.643,0,0,1-.641-.641V6.75H6.58a3.214,3.214,0,0,0-3.2,3.2V31.748a3.214,3.214,0,0,0,3.2,3.2H33.5a3.214,3.214,0,0,0,3.2-3.2V9.955A3.214,3.214,0,0,0,33.5,6.75Zm.641,24.037a1.607,1.607,0,0,1-1.6,1.6h-25a1.607,1.607,0,0,1-1.6-1.6V16.365a.643.643,0,0,1,.641-.641H33.5a.643.643,0,0,1,.641.641Z" transform="translate(-3.375 -4.186)"/><path class="c" d="M11.564,5.141a.643.643,0,0,0-.641-.641H9.641A.643.643,0,0,0,9,5.141V7.064h2.564Z" transform="translate(-2.59 -4.5)"/><path class="c" d="M27.314,5.141a.643.643,0,0,0-.641-.641H25.391a.643.643,0,0,0-.641.641V7.064h2.564Z" transform="translate(-0.393 -4.5)"/></g><text class="e" transform="translate(0.259 17.806)"><tspan x="0" y="0">Pago Online</tspan></text></g><g transform="translate(1298.61 151)"><path class="d" d="M46.709,0a10,10,0,0,1,8.674,5.023l11.762,20.5a10,10,0,0,1,0,9.953l-11.762,20.5A10,10,0,0,1,46.709,61H23.291a10,10,0,0,1-8.674-5.023L2.855,35.477a10,10,0,0,1,0-9.953l11.762-20.5A10,10,0,0,1,23.291,0Z" transform="translate(42.39 45)"/><g transform="translate(60.724 59.499)"><path class="c" d="M33.5,6.75H30.3V8.673a.643.643,0,0,1-.641.641H28.373a.643.643,0,0,1-.641-.641V6.75H12.349V8.673a.643.643,0,0,1-.641.641H10.426a.643.643,0,0,1-.641-.641V6.75H6.58a3.214,3.214,0,0,0-3.2,3.2V31.748a3.214,3.214,0,0,0,3.2,3.2H33.5a3.214,3.214,0,0,0,3.2-3.2V9.955A3.214,3.214,0,0,0,33.5,6.75Zm.641,24.037a1.607,1.607,0,0,1-1.6,1.6h-25a1.607,1.607,0,0,1-1.6-1.6V16.365a.643.643,0,0,1,.641-.641H33.5a.643.643,0,0,1,.641.641Z" transform="translate(-3.375 -4.186)"/><path class="c" d="M11.564,5.141a.643.643,0,0,0-.641-.641H9.641A.643.643,0,0,0,9,5.141V7.064h2.564Z" transform="translate(-2.59 -4.5)"/><path class="c" d="M27.314,5.141a.643.643,0,0,0-.641-.641H25.391a.643.643,0,0,0-.641.641V7.064h2.564Z" transform="translate(-0.393 -4.5)"/></g><text class="e" transform="translate(0.39 18)"><tspan x="0" y="0">Reservas de Cita</tspan></text></g><g transform="translate(978.286 295.194)"><path class="d" d="M45.917,0a10,10,0,0,1,8.7,5.077l11.594,20.5a10,10,0,0,1,0,9.846l-11.594,20.5A10,10,0,0,1,45.917,61H23.083a10,10,0,0,1-8.7-5.077L2.784,35.423a10,10,0,0,1,0-9.846l11.594-20.5A10,10,0,0,1,23.083,0Z" transform="translate(78.714 46.806)"/><g transform="translate(96.906 61.286)"><path class="c" d="M33.5,6.75H30.3V8.673a.643.643,0,0,1-.641.641H28.373a.643.643,0,0,1-.641-.641V6.75H12.349V8.673a.643.643,0,0,1-.641.641H10.426a.643.643,0,0,1-.641-.641V6.75H6.58a3.214,3.214,0,0,0-3.2,3.2V31.748a3.214,3.214,0,0,0,3.2,3.2H33.5a3.214,3.214,0,0,0,3.2-3.2V9.955A3.214,3.214,0,0,0,33.5,6.75Zm.641,24.037a1.607,1.607,0,0,1-1.6,1.6h-25a1.607,1.607,0,0,1-1.6-1.6V16.365a.643.643,0,0,1,.641-.641H33.5a.643.643,0,0,1,.641.641Z" transform="translate(-3.375 -4.186)"/><path class="c" d="M11.564,5.141a.643.643,0,0,0-.641-.641H9.641A.643.643,0,0,0,9,5.141V7.064h2.564Z" transform="translate(-2.59 -4.5)"/><path class="c" d="M27.314,5.141a.643.643,0,0,0-.641-.641H25.391a.643.643,0,0,0-.641.641V7.064h2.564Z" transform="translate(-0.393 -4.5)"/></g><text class="e" transform="translate(-0.286 17.806)"><tspan x="0" y="0">Resultados de Laboratorio</tspan></text></g><g transform="translate(1033.448 522.615)"><path class="d" d="M45.871,0a10,10,0,0,1,8.738,5.138l11.686,21a10,10,0,0,1,0,9.725l-11.686,21A10,10,0,0,1,45.871,62H23.129a10,10,0,0,1-8.738-5.138l-11.685-21a10,10,0,0,1,0-9.725l11.686-21A10,10,0,0,1,23.129,0Z" transform="translate(27.552 43.385)"/><g transform="translate(45.22 58.921)"><path class="c" d="M33.5,6.75H30.3V8.673a.643.643,0,0,1-.641.641H28.373a.643.643,0,0,1-.641-.641V6.75H12.349V8.673a.643.643,0,0,1-.641.641H10.426a.643.643,0,0,1-.641-.641V6.75H6.58a3.214,3.214,0,0,0-3.2,3.2V31.748a3.214,3.214,0,0,0,3.2,3.2H33.5a3.214,3.214,0,0,0,3.2-3.2V9.955A3.214,3.214,0,0,0,33.5,6.75Zm.641,24.037a1.607,1.607,0,0,1-1.6,1.6h-25a1.607,1.607,0,0,1-1.6-1.6V16.365a.643.643,0,0,1,.641-.641H33.5a.643.643,0,0,1,.641.641Z" transform="translate(-3.375 -4.186)"/><path class="c" d="M11.564,5.141a.643.643,0,0,0-.641-.641H9.641A.643.643,0,0,0,9,5.141V7.064h2.564Z" transform="translate(-2.59 -4.5)"/><path class="c" d="M27.314,5.141a.643.643,0,0,0-.641-.641H25.391a.643.643,0,0,0-.641.641V7.064h2.564Z" transform="translate(-0.393 -4.5)"/></g><text class="e" transform="translate(-0.448 18.385)"><tspan x="0" y="0">Médico Virtual</tspan></text></g><g transform="translate(1602.483 522.615)"><path class="d" d="M46.662,0A10,10,0,0,1,55.37,5.084l11.855,21a10,10,0,0,1,0,9.832l-11.855,21A10,10,0,0,1,46.662,62H23.338a10,10,0,0,1-8.708-5.084l-11.855-21a10,10,0,0,1,0-9.832l11.855-21A10,10,0,0,1,23.338,0Z" transform="translate(42.517 44.385)"/><g transform="translate(60.979 59.79)"><path class="c" d="M33.5,6.75H30.3V8.673a.643.643,0,0,1-.641.641H28.373a.643.643,0,0,1-.641-.641V6.75H12.349V8.673a.643.643,0,0,1-.641.641H10.426a.643.643,0,0,1-.641-.641V6.75H6.58a3.214,3.214,0,0,0-3.2,3.2V31.748a3.214,3.214,0,0,0,3.2,3.2H33.5a3.214,3.214,0,0,0,3.2-3.2V9.955A3.214,3.214,0,0,0,33.5,6.75Zm.641,24.037a1.607,1.607,0,0,1-1.6,1.6h-25a1.607,1.607,0,0,1-1.6-1.6V16.365a.643.643,0,0,1,.641-.641H33.5a.643.643,0,0,1,.641.641Z" transform="translate(-3.375 -4.186)"/><path class="c" d="M11.564,5.141a.643.643,0,0,0-.641-.641H9.641A.643.643,0,0,0,9,5.141V7.064h2.564Z" transform="translate(-2.59 -4.5)"/><path class="c" d="M27.314,5.141a.643.643,0,0,0-.641-.641H25.391a.643.643,0,0,0-.641.641V7.064h2.564Z" transform="translate(-0.393 -4.5)"/></g><text class="e" transform="translate(-0.483 18.385)"><tspan x="0" y="0">Médico a domicilio</tspan></text></g><g transform="translate(1286.029 775.197)"><path class="d" d="M46.709,0a10,10,0,0,1,8.674,5.023l11.762,20.5a10,10,0,0,1,0,9.953l-11.762,20.5A10,10,0,0,1,46.709,61H23.291a10,10,0,0,1-8.674-5.023L2.855,35.477a10,10,0,0,1,0-9.953l11.762-20.5A10,10,0,0,1,23.291,0Z" transform="translate(54.971 43.803)"/><g transform="translate(73.305 58.33)"><path class="c" d="M33.5,6.75H30.3V8.673a.643.643,0,0,1-.641.641H28.373a.643.643,0,0,1-.641-.641V6.75H12.349V8.673a.643.643,0,0,1-.641.641H10.426a.643.643,0,0,1-.641-.641V6.75H6.58a3.214,3.214,0,0,0-3.2,3.2V31.748a3.214,3.214,0,0,0,3.2,3.2H33.5a3.214,3.214,0,0,0,3.2-3.2V9.955A3.214,3.214,0,0,0,33.5,6.75Zm.641,24.037a1.607,1.607,0,0,1-1.6,1.6h-25a1.607,1.607,0,0,1-1.6-1.6V16.365a.643.643,0,0,1,.641-.641H33.5a.643.643,0,0,1,.641.641Z" transform="translate(-3.375 -4.186)"/><path class="c" d="M11.564,5.141a.643.643,0,0,0-.641-.641H9.641A.643.643,0,0,0,9,5.141V7.064h2.564Z" transform="translate(-2.59 -4.5)"/><path class="c" d="M27.314,5.141a.643.643,0,0,0-.641-.641H25.391a.643.643,0,0,0-.641.641V7.064h2.564Z" transform="translate(-0.393 -4.5)"/></g><text class="e" transform="translate(-0.029 17.803)"><tspan x="0" y="0">Beneficios Exclusivos</tspan></text></g></g></svg>