<svg xmlns="http://www.w3.org/2000/svg" xmlns:xlink="http://www.w3.org/1999/xlink" width="1920" height="265" viewBox="0 0 1920 265"><defs><style>.a{clip-path:url(#b);}.b{fill:#c2df0a;font-size:183px;font-family:Poppins-Regular, Poppins;}.c{fill:#707070;}.d{fill:#00b0ca;}.e{fill:#fff;}</style><clipPath id="b"><rect width="1920" height="265"/></clipPath></defs><g id="a" class="a"><rect class="e" width="1920" height="265"/><text class="b" transform="translate(296 192)"><tspan x="0" y="0">Clínica</tspan><tspan class="c" y="0"> </tspan><tspan class="d" y="0">My Health</tspan></text><g transform="translate(46 -5.4)"><g transform="translate(0 56.4)"><path class="d" d="M206.8,130.2H189c7.4-16.8,6.6-30.4,3.8-39.6-4.8-16.4-21-34.2-45-34.2A56.263,56.263,0,0,0,128.4,60,100.622,100.622,0,0,0,106,71.2,96.024,96.024,0,0,0,83.6,60a57.123,57.123,0,0,0-19.4-3.6c-24,0-40.2,17.8-45,34.2-2.8,9.8-3.8,24.6,5.6,43.2H3.2a3.2,3.2,0,1,0,0,6.4H28.6a42.22,42.22,0,0,0,3.6,5.4c20.8,30,66,62.6,74.2,64.6v.2a.619.619,0,0,0,.4-.2h.6V210c7-3.4,50.4-31.4,73.2-64.6a73.579,73.579,0,0,0,5.6-9h21a3.159,3.159,0,0,0,3.2-3.2C210.4,131.4,208.6,130.2,206.8,130.2Zm-32,11.8c-21.2,31-60.2,56-68.6,61.4C97.6,198,58.8,172.8,37.4,142l-1.2-1.8H65.6a3.3,3.3,0,0,0,3-1.8L82,112l21,53.8a3.275,3.275,0,0,0,3,2h.2a3.185,3.185,0,0,0,3-2.4l18.4-63,9.8,31.8a3.26,3.26,0,0,0,2.6,2.2,3.463,3.463,0,0,0,3.2-1.4l7.8-11.4,6.6,11.2a3.192,3.192,0,0,0,2.8,1.6h18C177.2,138.4,176,140.2,174.8,142Zm7.2-11.8H162.4l-8.2-14a3.192,3.192,0,0,0-2.8-1.6,3.026,3.026,0,0,0-2.8,1.4l-6.8,10-11-35.8a3.711,3.711,0,0,0-3.2-2.4,3.423,3.423,0,0,0-3.2,2.4l-18.6,64.2L85.6,102.8a3.008,3.008,0,0,0-2.8-2,3.1,3.1,0,0,0-3,1.8L64,133.6H32.2C24.2,119,22,105,25.6,92.4,29.8,78.2,43.6,63,64.4,63a53.2,53.2,0,0,1,17.2,3.2,97.229,97.229,0,0,1,22.6,11.6,3.042,3.042,0,0,0,4,0s7.8-6.2,22.6-11.6A48.351,48.351,0,0,1,148,63c20.6,0,34.6,15.2,38.8,29.4C190.2,104,188.4,116.8,182,130.2Z" transform="translate(0 -56.4)"/></g></g></g></svg>